<svg width="56" height="56" viewBox="0 0 56 56" fill="none" xmlns="http://www.w3.org/2000/svg">
<g id="Avatar" clip-path="url(#clip0_1_225)">
<circle id="Ellipse" cx="28" cy="28" r="28" fill="#DAE3EA"/>
<g id="icon/social/person_24px">
<path id="icon/social/person_24px_2" fill-rule="evenodd" clip-rule="evenodd" d="M33.3334 22.6666C33.3334 25.6133 30.9467 27.9999 28 27.9999C25.0534 27.9999 22.6667 25.6133 22.6667 22.6666C22.6667 19.7199 25.0534 17.3333 28 17.3333C30.9467 17.3333 33.3334 19.7199 33.3334 22.6666ZM17.3334 35.9999C17.3334 32.4533 24.44 30.6666 28 30.6666C31.56 30.6666 38.6667 32.4533 38.6667 35.9999V37.3333C38.6667 38.0666 38.0667 38.6666 37.3334 38.6666H18.6667C17.9334 38.6666 17.3334 38.0666 17.3334 37.3333V35.9999Z" fill="#94A3B1"/>
</g>
</g>
<defs>
<clipPath id="clip0_1_225">
<rect width="56" height="56" fill="white"/>
</clipPath>
</defs>
</svg>
